<?xml version="1.0" standalone="no"?>
<!DOCTYPE svg PUBLIC "-//W3C//DTD SVG 20010904//EN"
 "http://www.w3.org/TR/2001/REC-SVG-20010904/DTD/svg10.dtd">
<svg version="1.0" xmlns="http://www.w3.org/2000/svg"
 width="512.000000pt" height="512.000000pt" viewBox="0 0 512.000000 512.000000"
 preserveAspectRatio="xMidYMid meet">
<metadata>
Created by potrace 1.11, written by Peter Selinger 2001-2013
</metadata>
<g transform="translate(0.000000,512.000000) scale(0.100000,-0.100000)"
fill="#000000" stroke="none">
<path d="M2495 5036 c-37 -17 -80 -62 -94 -99 -8 -19 -11 -267 -11 -758 l0
-729 -107 -1 c-60 0 -124 -5 -143 -12 -66 -23 -99 -111 -66 -175 8 -15 106
-118 218 -228 153 -152 211 -203 235 -209 70 -15 88 -2 287 194 104 102 201
204 217 225 36 49 38 99 6 147 -31 46 -72 58 -199 58 l-108 1 0 730 c0 794 2
768 -56 822 -52 48 -119 61 -179 34z"/>
<path d="M92 4494 c-112 -57 -124 -223 -22 -290 27 -18 66 -29 136 -40 253
-38 454 -129 636 -287 103 -91 161 -156 237 -267 54 -79 131 -210 131 -222 0
-3 -44 -23 -97 -43 -123 -47 -150 -66 -164 -115 -14 -48 -6 -82 29 -120 32
-34 531 -260 575 -260 37 0 80 23 100 53 8 13 66 136 127 273 117 261 128 300
95 350 -43 66 -100 71 -233 20 -52 -20 -97 -36 -102 -36 -5 0 -29 38 -54 85
-219 413 -551 710 -936 839 -189 63 -399 90 -458 60z"/>
<path d="M4837 4499 c-502 -73 -934 -398 -1203 -904 -25 -47 -49 -85 -54 -85
-5 0 -50 16 -102 36 -133 51 -190 46 -233 -20 -33 -50 -22 -89 95 -350 61
-137 119 -260 127 -273 20 -30 63 -53 100 -53 44 0 543 226 575 260 35 38 43
72 29 120 -14 49 -41 68 -164 115 -54 20 -97 40 -95 44 81 170 235 373 371
489 188 161 382 249 631 286 114 17 163 43 191 101 23 50 17 130 -14 174 -46
65 -113 81 -254 60z"/>
<path d="M1871 2992 c-63 -140 -83 -175 -125 -218 -38 -39 -64 -56 -105 -68
-105 -31 -125 -26 -417 105 -122 54 -229 99 -237 99 -29 0 -192 -62 -252 -95
-61 -34 -103 -72 -124 -112 -7 -13 -11 -85 -11 -188 0 -135 3 -174 17 -202 76
-161 616 -300 1378 -355 94 -6 348 -12 565 -12 536 0 893 28 1280 99 288 53
470 112 582 188 93 63 98 78 98 283 0 161 -1 173 -23 205 -44 65 -182 141
-329 180 -43 12 -45 11 -268 -89 -295 -132 -316 -137 -421 -106 -93 28 -141
87 -229 284 -41 91 -75 166 -75 167 -1 2 -102 -98 -224 -221 -256 -257 -277
-271 -391 -271 -114 0 -135 14 -391 271 -123 123 -223 224 -223 224 -1 -1 -34
-76 -75 -168z"/>
<path d="M744 1886 c-138 -79 -144 -91 -144 -305 0 -191 4 -206 65 -260 158
-138 648 -248 1322 -296 275 -19 871 -19 1146 0 674 48 1164 158 1322 296 61
54 65 69 65 260 0 156 -2 175 -21 205 -21 35 -125 110 -166 120 -15 4 -65 -6
-126 -24 -255 -78 -553 -126 -1012 -164 -205 -17 -1059 -17 -1270 0 -448 36
-787 91 -1020 166 -98 32 -110 32 -161 2z"/>
<path d="M749 955 c-25 -13 -68 -44 -95 -68 l-49 -45 -3 -181 c-3 -155 -1
-186 14 -217 77 -162 612 -300 1379 -355 219 -16 911 -16 1130 0 767 55 1302
193 1379 355 15 31 17 62 14 217 l-3 181 -49 45 c-27 24 -71 55 -98 69 l-48
24 -98 -29 c-401 -124 -939 -183 -1662 -183 -723 0 -1261 59 -1662 182 -53 17
-98 30 -100 30 -1 -1 -24 -12 -49 -25z"/>
</g>
</svg>
