<svg id="446ca4ad-42ae-429f-a503-c45e0a2915e7" data-name="Ebene 1" xmlns="http://www.w3.org/2000/svg" viewBox="0 0 900 900">
  <defs>
    <style>
      .\39 08b5cc8-6555-409f-82fb-b6df847f99e9 {
        fill: #2ee6b7;
      }
    </style>
  </defs>
  <title>F1</title>
  <path class="908b5cc8-6555-409f-82fb-b6df847f99e9" d="M164.7389,96.5525l94.4761,46.591a430.28,430.28,0,0,0,322.8624,23.4483l81.3873-26.354c98.4074-31.8652,199.6564,40.3055,201.6325,143.7246l6.7022,350.7444A135.9467,135.9467,0,0,1,769.9951,768.9h0a135.9467,135.9467,0,0,1-121.5715-27.513l-27.5359-16.1386a2089.3339,2089.3339,0,0,1-556.68-474.7407l0,0h0c-37.3775-37.5218-44.2827-99.3748-4.73-137.54h0A92.6048,92.6048,0,0,1,164.7389,96.5525Z"/>
</svg>
