<svg id="0ef50300-b3c4-4d76-b37e-f9b41d5129d1" data-name="Ebene 1" xmlns="http://www.w3.org/2000/svg" viewBox="0 0 1994 4402">
  <defs>
    <style>
      .adcfa13f-ee20-4c6c-918a-c80e390a64f5 {
        fill: #2ee6b7;
      }
    </style>
  </defs>
  <title>Ground</title>
  <path class="adcfa13f-ee20-4c6c-918a-c80e390a64f5" d="M175.1114,230.734l4.9432,8.0448L371.63,550.5582c64.53,105.0188,64.5889,257.9078.1405,363.0192l-68.4615,111.6565c-69.9493,114.083-63.179,282.4351,15.5,385.4287l22.7,29.7149c81.0735,106.1279,85.4432,280.8537,9.86,394.25l0,0c-77.3633,116.0672-70.71,295.684,14.837,400.5555l8.2082,10.0624c86.1683,105.6331,92.1964,286.8871,13.3929,402.7l-5.3141,7.81c-83.31,122.4358-71.1092,315.9878,26.3047,417.287l25.3725,26.3845c81.5265,84.7781,78.7914,253.1514-5.4083,332.9348l0,0c-91.5154,86.7154-89.0758,278.89,7.9922,353.5683L641,3942c1.4431,1.11-3.26-2.3267,0,0,147.8449,105.5249,327.8189,143.1689,508.2082,121.8771l255.4079-30.1465a315.9587,315.9587,0,0,1,187.3991,35.894L1796,4180c86.0094,5.7241,95.5156-244.1351,96-361.4266L1906.3754,338.1C1906.798,235.78,1957.2723,220.3282,1883,205L203,229"/>
</svg>
